<svg width="32" height="32" viewBox="0 0 32 32" fill="none" xmlns="http://www.w3.org/2000/svg">
<path d="M0 8C0 3.58172 3.58172 0 8 0H24C28.4183 0 32 3.58172 32 8V24C32 28.4183 28.4183 32 24 32H8C3.58172 32 0 28.4183 0 24V8Z" fill="#F3F4F6"/>
<path d="M16.8305 6.17987C16.5699 6.06102 16.2868 5.99951 16.0005 5.99951C15.7141 5.99951 15.431 6.06102 15.1705 6.17987L6.60045 10.0799C6.423 10.1581 6.27213 10.2863 6.16621 10.4487C6.0603 10.6112 6.00391 10.8009 6.00391 10.9949C6.00391 11.1888 6.0603 11.3786 6.16621 11.541C6.27213 11.7035 6.423 11.8316 6.60045 11.9099L15.1805 15.8199C15.441 15.9387 15.7241 16.0002 16.0105 16.0002C16.2968 16.0002 16.5799 15.9387 16.8405 15.8199L25.4205 11.9199C25.5979 11.8416 25.7488 11.7135 25.8547 11.551C25.9606 11.3886 26.017 11.1988 26.017 11.0049C26.017 10.8109 25.9606 10.6212 25.8547 10.4587C25.7488 10.2963 25.5979 10.1681 25.4205 10.0899L16.8305 6.17987Z" stroke="#374151" stroke-width="2" stroke-linecap="round" stroke-linejoin="round"/>
<path d="M6 16C5.99953 16.1913 6.05392 16.3787 6.15672 16.5399C6.25952 16.7012 6.40642 16.8297 6.58 16.91L15.18 20.82C15.4392 20.9374 15.7205 20.9981 16.005 20.9981C16.2895 20.9981 16.5708 20.9374 16.83 20.82L25.41 16.92C25.587 16.8404 25.737 16.7111 25.8418 16.5477C25.9466 16.3844 26.0015 16.1941 26 16" stroke="#374151" stroke-width="2" stroke-linecap="round" stroke-linejoin="round"/>
<path d="M6 21C5.99953 21.1913 6.05392 21.3787 6.15672 21.5399C6.25952 21.7012 6.40642 21.8297 6.58 21.91L15.18 25.82C15.4392 25.9374 15.7205 25.9981 16.005 25.9981C16.2895 25.9981 16.5708 25.9374 16.83 25.82L25.41 21.92C25.587 21.8404 25.737 21.7111 25.8418 21.5477C25.9466 21.3844 26.0015 21.1941 26 21" stroke="#374151" stroke-width="2" stroke-linecap="round" stroke-linejoin="round"/>
</svg>
