<svg width="36" height="36" viewBox="0 0 36 36" fill="none" xmlns="http://www.w3.org/2000/svg">
<path d="M0 18C0 8.05888 8.05888 0 18 0C27.9411 0 36 8.05888 36 18C36 27.9411 27.9411 36 18 36C8.05888 36 0 27.9411 0 18Z" fill="#E5E7EB"/>
<path d="M26.3346 13.8335L18.8421 18.606C18.5879 18.7537 18.2991 18.8315 18.0051 18.8315C17.711 18.8315 17.4222 18.7537 17.168 18.606L9.66797 13.8335" stroke="#374151" stroke-width="2" stroke-linecap="round" stroke-linejoin="round"/>
<path d="M24.668 11.3335H11.3346C10.4142 11.3335 9.66797 12.0797 9.66797 13.0002V23.0002C9.66797 23.9206 10.4142 24.6668 11.3346 24.6668H24.668C25.5884 24.6668 26.3346 23.9206 26.3346 23.0002V13.0002C26.3346 12.0797 25.5884 11.3335 24.668 11.3335Z" stroke="#374151" stroke-width="2" stroke-linecap="round" stroke-linejoin="round"/>
</svg>
