<svg width="32" height="32" viewBox="0 0 32 32" fill="none" xmlns="http://www.w3.org/2000/svg">
<path d="M0 8C0 3.58172 3.58172 0 8 0H24C28.4183 0 32 3.58172 32 8V24C32 28.4183 28.4183 32 24 32H8C3.58172 32 0 28.4183 0 24V8Z" fill="#F3F4F6"/>
<path d="M25.1739 10.8119C25.7026 10.2833 25.9997 9.56636 25.9998 8.81875C25.9999 8.07113 25.703 7.3541 25.1744 6.82539C24.6459 6.29668 23.9289 5.99961 23.1813 5.99951C22.4337 5.99942 21.7166 6.29632 21.1879 6.82489L7.84193 20.1739C7.60975 20.4054 7.43805 20.6904 7.34193 21.0039L6.02093 25.3559C5.99509 25.4424 5.99314 25.5342 6.01529 25.6217C6.03743 25.7092 6.08285 25.7891 6.14673 25.8529C6.21061 25.9167 6.29055 25.962 6.37809 25.984C6.46563 26.006 6.55749 26.0039 6.64393 25.9779L10.9969 24.6579C11.3101 24.5626 11.5951 24.392 11.8269 24.1609L25.1739 10.8119Z" stroke="#374151" stroke-width="2" stroke-linecap="round" stroke-linejoin="round"/>
</svg>
